<?xml version="1.0" encoding="UTF-8"?>
<svg version="1.1" viewBox="0 0 2000 2000" width="1280" height="1280" xmlns="http://www.w3.org/2000/svg">
<path transform="translate(1182,564)" d="m0 0h15l10 4 8 8 8 16 5 19 4 22 4 33 2 5 12 3 84 15 42 10 42 12 41 13 29 11 13 5 6-1 5-4 10-5 17-5 14-3 32-4 6 1 4 4 1 6 1 41 2 19 9 1v-56l-4-8-6-4-1-3 10 2 5-1 10-7 10-4 29-6 20-3 10-1h14l6 3 3 5 2 13 1 13 3 101 2 52v147l-5 26-9 29-7 16-12 22-16 25-13 18-11 13-12 14-7 8-8 7-3 4 1 7 9 21 2 7v12l-5 14-9 12-7 7-17 13-16 9-14 6-15 4-15 3-18 1-16-2-24-6-6-1h-10l-21 8-30 13-30 12-45 16-46 15-38 10-36 9-39 8-53 9-44 6-40 4-43 3-77 1-91-1-40-4-69-9-41-7-46-10-63-16-25-9-49-22-32-16-17-10-21-13-16-11-14-10-14-11-11-9-14-12-8-8-9-11-8-8-11-14-10-16-9-17-12-28-7-23-3-21-1-11v-28l3-26 4-16 9-27 9-20 11-20 11-17 13-17 9-11 9-10 12-13 9-9 8-7 11-10 25-20 19-14 18-12 25-16 24-14 24-13 23-11 22-10 32-14 34-13 43-15 40-12 56-14 51-11 37-7 12-5 5-4 9-15 8-16 11-26 9-25 6-11 4-5 9-6 10-3 18 1 31 9 25 10 23 12 20 13 7 3 7 1 12-4 17-8 22-12 27-16 14-8zm-204 684-26 3-33 7-40 7-18 4-5 3 3 2 18 4 18 1 25-3 29-6 20-5 15-6 15-8v-1l-11-1z" fill="#FCFCFC"/>
<path transform="translate(1184,580)" d="m0 0 4 1 3 9 5 27 3 28 1 16v26l-3 10-5 1-2 6-11 19-10 14-9 11-10 9-21 14-25 13-20 8-26 8-18 4h-16l-2-3-5 1 1 8 2 8h2v2h2l3 4 8-1 42-11 20-7 20-9 12-5 14-11 14-12 10-9 9-13 9-16 7-16 3-9 42 4 48 7 42 8 35 8 29 8 30 9 34 12 24 10 20 9 17 8 6 4 2 2 2 48 1 37v63l-3 4-23 5-14 2h-6l-2-56-2-63-1-20-15 2-147 27-20 5-16 7-10 8-8 14-3 9-1 5-1 21 2 66 1 26 2 14 2 8v7l-2 2 2 9 6 10 7 7 6 4 4 1h28l26-3 38-6 26-3 8-2-1 5-5 4-19 5-23 4v30l1 39-1 5 3 5v2l17-2 49-9 14-4 12-5 11-9 10-14 4-8v-5l-3-1 1-11 3-18v-32l1 4 8-1 31-6 28-6 15-5 12-6 10-9 6-10 4-11 1-9h-2l-1-4 3-11v-39l-2-57v-20l5 2 12 11 9 8 7 8 3 2-2-53-2-70v-27l13-3 44-8 10-2h5l4 104 2 76 1 20 1 45v29l-13 2-43 8-13 4-1 1-1 9 28-4 21-2v13l-3 26-6 23-8 22-9 17-6 11-10 16-14 18-12 14-16 17-8 8-8 7-13 11-8 7-6-1-15-7-27-9-27-6-31-4-41-3-20-1h-52l-41 2-42 3-38 4-59 8-56 9-58 10-104 20-64 13-104 23-68 16-80 20-23 6-25 5-12 3-6 4-2 4v7l2 9-5 1-21-7-24-10-18-8-21-10-20-11-23-14-17-12-13-10-13-11-8-7-13-12v-2l34-7 69-12 35-6 21-4 113-20 54-9 37-5 35-6 26-7 15-6 10-7 7-7 7 1 18 7 4 1h12l36-8 29-5 12-4 16-8 13-10h5l6 4 12 2h14l15-1 23-4 24-7 16-8 7-8 2-3 4 1 9 6 9 3h13l29-4 23-5 15-5 14-8 10-9 8-12 2-5v-7h-3l1-9 2-14v-45l-3-91v-27l-39 7-29 5h-3l1 49 2 67v19l-3 5-7 3-23 5-7 1h-9l-3-3-1-5-2-36-2-74v-21l-40 7-29 5h-4l4 108v23l-3 8-3 3-20 5-12 2h-12l-2-4-1-13-3-95v-26l-32 5-40 7v20l2 64 1 19v31l-4 5-8 4-28 6-19 3h-10l-2-2-1-6-2-44-3-86-12 1-56 10h-4l1 9 3 103v19l-2 7-7 4-30 7-35 6h-5l-4-87-2-16-4-10-6-9-10-6-6-2h-29l-25 4-146 26-19 3h-5l-1-21-1-38-18 2-26 4h-8l1-5 26-26 8-7 14-12 13-10 15-11 10-7 15-10 19-12 25-14 23-12 17-9 27-12 19-8 26-10 30-11 46-15 32-9 32-8 37-8 36-7 37-6 8-1 3-5 9-22 8-16 10-19 10-18 10-21 6-19 2-11 1-1 10 1 18 5 25 10 20 10 19 12 15 10 4 4-3 5-6 2 1 5 5-1 31-15 48-23 18-10 22-15z" fill="#0F673C"/>
<path transform="translate(1227,857)" d="m0 0h5l4 118v45l-3 18-1 5 3 1-3 1-7 10-8 8-8 5-12 5-17 5-29 6-16 2h-13l-13-5-7-5-4 2-5 5-8 7-15 6-23 6-21 3-10 1h-27l-8-5v-2l-6 1-11 10-11 5-24 7-29 6-26 4-7 1h-19l-18-9h-2l-2 5-9 8-11 5-13 4-33 7-56 10-88 15-21 4-36 6-50 9-78 14-75 13-12 2-2 10h-1l-1-10v-12l-1-19-13-26-9-25-4-18-2-17v-23l2-19 4-19 8-24 12-25 11-19 9-13 1-1 1-16 7-2 9-3 4-3v2l34-5 18-2 1 1 1 38v21l58-10 77-14 35-6 25-4h29l10 4 8 6 6 10 3 8 2 16 3 69v18l50-9 23-6 4-4 1-5v-19l-3-103v-9l50-9 17-3h5l1 1 3 86 2 44 2 7h10l29-5 21-5 7-5 1-2v-31l-2-47-1-36v-20l5-2 60-10h8l4 121 1 13 1 3h12l25-5 8-3 3-5 1-4v-23l-3-81v-27l49-9 19-3h5l1 21 2 74 2 36 2 6 1 1h9l25-5 12-3 2-5v-19l-3-106v-7l1-3 14-3 29-5z" fill="#B79F64"/>
<path transform="translate(1586,731)" d="m0 0h7l1 1 1 7 1 29 1 50 1 19 3 7h-2v19l2 57v39l-3 13v2h2v9l-6 15-7 9-8 7-14 7-21 6-31 6-25 5-3-1v28l-4 24-1 5 4 1-1 7-6 11-10 12-11 8-16 6-29 6-41 7-4-1-4-7 1-6-1-38v-30l7-2 26-5 12-4 3-3 1-4-8 3-26 3-53 8-11 1h-28l-7-3-10-9-6-9-3-8 1-4 1-1v-7l-3-13-1-9-2-54-1-41 1-18 3-12 7-13 6-7 9-6 17-7 27-6 137-25 15-2 1 1 2 44 2 71v24l31-5 12-3 2-3v-63l-2-62-1-23v-3l-1-47 7-3 37-6z" fill="#B79E64"/>
<path transform="translate(1261,1252)" d="m0 0h146l29 4 16 5 12 7 6 5v3l-17 9-23 11-24 11-50 20-28 10-34 11-43 12-36 9-58 12-49 8-57 7-49 4-39 2-28 1h-50l-71-3-48-5-49-7-28-5-39-8-39-10-22-7v-2l33-11 41-10 34-7 45-8 86-15 85-14 59-9 71-10 50-6 72-7 37-2 28-3z" fill="#156A3E"/>
<path transform="translate(1184,580)" d="m0 0 4 1 3 9 5 27 3 28 1 16v26l-3 10-5 1-2 6-11 19-10 14-9 11-10 9-21 14-25 13-20 8-26 8-18 4h-16l-2-3-4-2-1-9-2-6v-21l5-17 8-16 7-10 1-2-5 3-10 9-8 6-8 11-11 19-5 5-3-1-1 4v38l-2 2-5-1-8-16-1-9 3-3-1-9-4-18 1-16 3-14 4-11-5 5-7 9-4 4-4-1-1-1 1-8 2-6-5-2h-2v2l-4 1-2 6-4 6-4-1-2-1-1 3v18l4 13 5 9 13 18 4 6 1 8-2 1h-6l8 10v5l-3 3-4 1-16-6-12-7-11-9-8-8-7-11-4-10 1-6h5l-4-9-3-11v-17l2-15-37 6-28 5-23 5-16 3-32 8-27 7-31 9-30 10-20 7-7 1 2-2 47-16 33-10 41-11 41-9 35-7 43-7 8-1 3-5 9-22 8-16 10-19 10-18 10-21 6-19 2-11 1-1 10 1 18 5 25 10 20 10 19 12 15 10 4 4-3 5-6 2 1 5 5-1 31-15 48-23 18-10 22-15z" fill="#95C44F"/>
<path transform="translate(1697,711)" d="m0 0h5l4 104 2 76 1 20 1 45v29l-13 2-43 8-14 4-2-2-2-63-2-53-2-7h2l-2-53-2-70v-27l13-3 44-8z" fill="#B79F64"/>
<path transform="translate(954,582)" d="m0 0 10 1 18 5 25 10 20 10 19 12 15 10 1 1v6l-13 8-16 8-3 3-17 10-14 10-11 9-13 12-8 10-9 14-1-2-5-2h-2v2l-4 1-2 6-4 6-4-1-2-1-1 3v18l4 13 5 9 13 18 4 6 1 8-2 1h-6l8 10v5l-3 3-4 1-16-6-12-7-11-9-8-8-7-11-4-10 1-6h5l-4-9-3-11v-17l2-15-37 6-28 5-23 5-16 3-32 8-27 7-31 9-30 10-20 7-7 1 2-2 47-16 33-10 41-11 41-9 35-7 43-7 8-1 3-5 9-22 8-16 10-19 10-18 10-21 6-19 2-11z" fill="#4EB25A"/>
<path transform="translate(588,1055)" d="m0 0h18l9 1 1 51-21 4-48 9-60 11-42 7h-8l-1-35v-21l9-1 5-2 66-12 52-9z" fill="#0F673C"/>
<path transform="translate(357,969)" d="m0 0h2l1 12 4 126v45l-23 5-1 9-1 22-4-1-8-16-8-21-4-13-3-19-1-9v-23l2-19 4-19 8-24 12-25 11-19 7-10z" fill="#11683D"/>
<path transform="translate(792,1165)" d="m0 0h5l1 2 2 74-31 6-35 6-5-1-2-4-1-15-1-54 1-2 36-7z" fill="#B79F64"/>
<path transform="translate(878,1149)" d="m0 0h7l1 2 2 49 1 24-7 3-26 5-26 4h-12l-2-2v-9l-1-1-1-31v-30l5-2 37-7 12-3z" fill="#B79F65"/>
<path transform="translate(1403,910)" d="m0 0h3l1 11 1 26v19l-6 2-41 8-21 3h-9l-1-1-1-8-1-25v-22l9-1 24-5 30-5z" fill="#0F673C"/>
<path transform="translate(555,856)" d="m0 0 5 1 1 14 1 43 1 29-1 1-15 3h-5l1-17-13 3-15 2-5 5-9 16-5 2-12 2-1-5 12-21 25-40 17-28 5-7z" fill="#B79F64"/>
<path transform="translate(690,850)" d="m0 0h13l-1 6-8 13h-2l-2 5-13 24-9 15-5 8-9 3h-7v-17l1-15-6 9-8 16-2 3h-2l-2 6-4 4-13 3-2-2v-13l2-50 2-2 16-1v8l-1 7v18l6-10 7-14 7-13 2-2 9-2h5l1 1-1 17v14l12-20 8-15 3-3z" fill="#B79F65"/>
<path transform="translate(743,837)" d="m0 0h7l5 3 3 4v12l-8 26-5 14-2 7-2 2-8 2h-6l-4-1-9 6-13 3-7-1-4-3v-12l4-11 6-8 7-6 6-2-1-2-6 2h-4v-6l6-12 9-8 12-6z" fill="#B69F64"/>
<path transform="translate(804,824)" d="m0 0 10 1 5 6v12l-1 2-8 2h-6l-4-3-9 1-5 2v2l19 1 6 4 2 7v8l-3 7h-2l-2 5-6 7-11 7-12 4h-14l-7-4-1-3v-7l3-9 8-2h5l3 6 1 1h9l6-4 2-5v-2l-19-1-8-4-1-4 2-10 4-8 9-10 12-6z" fill="#B69F64"/>
<path transform="translate(600,1040)" d="m0 0 9 1v2h2l2 4v10l-7-1h-18l-26 4-52 9-64 12h-8l-2-4v-6l5-3 16-4 33-6 21-4 41-7 30-5z" fill="#FDFDFD"/>
<path transform="translate(1260,1034)" d="m0 0 3 1 6 8 10 7 7 3 10 1 19-1 25-4 36-6 30-4 5-1 2 1-1 6-3 8-6 2-26 3-53 8-11 1h-28l-7-3-10-9-6-9-3-8z" fill="#FDFDFD"/>
<path transform="translate(884,790)" d="m0 0h6l1 1v8l-2 8h7l1 4-3 9h-2l-1 3-6 2h-4l-2 10-6 19-1 4 7 1 1 1v6l-2 5h-2l-1 4-2 2-9 2h-9l-4-2v-10l7-24 4-11-7-3 1-8 3-7 1-1 7-1 5-12 3-8z" fill="#B59F64"/>
<path transform="translate(607,845)" d="m0 0 5 1v7l-6 20-5 16-7 21-8 25h-2l-2 4-13 3-1-1 1-11 13-40 14-42 4-2z" fill="#B69F64"/>
<path transform="translate(1480,1094)" d="m0 0 4 1-1 7-6 11-10 12-11 8-16 6-29 6-41 7-4-1-4-7 1-4 2-1 14-2 49-10 19-5 12-6 12-10z" fill="#FDFDFD"/>
<path transform="translate(1598,975)" d="m0 0h2v8l-6 15-7 9-8 7-14 7-21 6-31 6-25 5-2-1v-12l7-3 32-6 15-3 20-5 12-5 9-6 8-8 5-7 3-6z" fill="#FDFDFD"/>
<path transform="translate(1082,674)" d="m0 0h5l1 3-4 4-16 10-17 13-14 12-12 11-11 8-7 9-10 17-7 10-2-1v-9l6-16 5-10 9-12 6-7 8-7 14-11 20-13 17-8z" fill="#FDFDFD"/>
<path transform="translate(1209,1261)" d="m0 0h5l4 15 3 16-7 3-14 3-60 12h-3l-2 7-7 5h-7l-2-4 9-3v-3l-7 1-5-4v-9l3-5 2-1h8l6 8 2 3 5-2v-9l4-2 2 1 3 8h3l1-10 3-1 4 3 1 6h4l-1-13h5l4 9v2l7-1v-13h5l4 10 7-1-2-11-3-14 2-3 4 1 2 6 5 19h7l-5-25z" fill="#FDFDFD"/>
<path transform="translate(842,817)" d="m0 0h10l-1 9-12 38-6 18-5 4-8 2-5-1 1-8 6-21 12-35 5-5z" fill="#B69F65"/>
<path transform="translate(1047,647)" d="m0 0 5 1v3l-17 10-15 9-14 11-13 12-12 14-13 18-9 10-4-1-1-1 1-8 6-11 7-9 9-11 14-13 16-12 18-11 19-10z" fill="#FDFDFD"/>
<path transform="translate(896,769)" d="m0 0 5 1 8 9 11 9 15 10 14 7 10 9 1 7-3 3-4 1-16-6-12-7-11-9-8-8-7-11-4-10z" fill="#FDFDFD"/>
<path transform="translate(1400,897)" d="m0 0 5 1v12l-7 2-31 5-27 5-10 2-1-1v-11l10-4 18-4 16-3z" fill="#FDFDFD"/>
<path transform="translate(897,1355)" d="m0 0h9l7 3 5 5 3 6v8l-4 8-6 4-3 1h-11l-6-4-4-5-2-8 1-6 6-9z" fill="#FDFDFD"/>
<path transform="translate(805,1355)" d="m0 0h14l7 4 4 6v13l-4 7-4 3-3 1h-11l-6-3-5-6-2-9 3-10 5-5z" fill="#FDFDFD"/>
<path transform="translate(1174,1326)" d="m0 0 9 2 5 5 3 5 1 9-4 8-5 4-7 2h-7l-6-3-4-5-2-4-1-7 2-7 4-5 7-3z" fill="#FDFDFD"/>
<path transform="translate(1012,1294)" d="m0 0 5 1 3 22v9l-1 1-43 3-11 2-3 7-2 1h-7l-1-2 2-3h2l1-4v-15l4-1 2 1 2 8h8l-1-10 1-2 6 1 1 4v7l16-1-3-6-9-6v-4l14-8 5 1-1 4-6 3v5l3 1 6 8 5 1 2-1v-10l-1-16z" fill="#FDFDFD"/>
<path transform="translate(881,1214)" d="m0 0h7l1 1v9l-7 3-26 5-26 4h-12l-2-2v-6l4-4 9-2 43-7z" fill="#FDFDFD"/>
<path transform="translate(787,1230)" d="m0 0h12l1 3v8l-31 6-35 6-5-1-2-4v-8l1-1 22-3z" fill="#FDFDFD"/>
<path transform="translate(838,1356)" d="m0 0h19l7 3 2 5-1 13 2 11-1 1h-5l-2-2-2-9-1-1h-12l1 10-2 2-6-1-1-2v-26z" fill="#FDFDFD"/>
<path transform="translate(1031,1348)" d="m0 0 4 1 2 4 2 17v11h-9l-8-11-3-3v-2l-4-1 2 10v8l-1 1h-6l-1-1-2-18v-13h7l5 5 8 9v2h2v-18z" fill="#FDFDFD"/>
<path transform="translate(949,1355)" d="m0 0h6l1 2 1 12v18l-5 1-5-3-6-8-6-7-2-1 1 8v11h-6l-1-1-2-29 1-2h7l10 11 4 5v2h2l-1-18z" fill="#FDFDFD"/>
<path transform="translate(1294,1297)" d="m0 0 5 1 7 24 1 5-2 2-5 1-6-4-7-7-7-3 5 13v5l-5 2-3-3-7-27 1-3h6l7 5v2l4 2 5 4 3 1-4-14 1-5z" fill="#FDFDFD"/>
<path transform="translate(846,1302)" d="m0 0h6v1l-57 10-91 16-30 6-27 6-27 7-21 7-3 3 5 1 20 6 40 10 40 8 43 7 39 5v1h-10l-49-7-35-6-39-8-39-10-22-7v-2l33-11 41-10 34-7 45-8 86-15z" fill="#8EA660"/>
<path transform="translate(1205,1320)" d="m0 0h12l5 5 1 8-5 5-11 4h-2l2 6v5l-1 1h-6l-2-3-5-23v-5z" fill="#FDFDFD"/>
<path transform="translate(1239,1312)" d="m0 0h9l5 5 2 4-1 6-5 4-11 4 1 11-6 1-3-7-5-18v-6z" fill="#FDFDFD"/>
<path transform="translate(1318,1289)" d="m0 0h11l6 4 1 5-9-2h-8l-3 2-1 3v7l3 6 4 2 7-1 3-2 1-4-7-1-1-4 9-3h4l5 10v5l-15 7h-10l-6-4-4-6-1-4v-9l3-5 6-5z" fill="#FDFDFD"/>
<path transform="translate(1101,1339)" d="m0 0h7l5 3 2 3-1 4-8-3h-9l-1 5 13 1 7 3 3 4v6l-2 4-8 4-10 1-6-3-4-5v-3l7 1 5 3 8-1 2-4v-2l-14-1-5-2-4-5 1-6 5-5z" fill="#FDFDFD"/>
<path transform="translate(1143,1332)" d="m0 0 5 1 2 4 5 26-2 2h-5l-4-12h-7l-5 1v7l1 6-1 1h-6l-2-5-4-20v-5l1-1h6l2 10 11-1 2-1-1-12z" fill="#FDFDFD"/>
<path transform="translate(1062,1345)" d="m0 0h7v5l-1 1-15 2-1 3 1 3 16-1 1 4-6 2-10 2v6l19-1 1 4-2 2-17 3h-7l-2-4-2-15v-14z" fill="#FDFDFD"/>
<path transform="translate(1100,1295)" d="m0 0 7 1 4 6 1 3v12l-5 6-10 3h-8l-6-4-3-5v-8l4-1 3 5 3 6h11l3-5h-8l-3-4-1-8 5-6z" fill="#FDFDFD"/>
<path transform="translate(919,1314)" d="m0 0 5 2 1 4v12l-8 1h-5l-2 6-3 4-3 1h-20l-5-5-2-9 2-5 5 1 1 10 7 2h9l2-1-1-4-7-3v-3l20 1 3-1v-12z" fill="#FDFDFD"/>
<path transform="translate(768,1353)" d="m0 0h12l11 1 1 1v5h-17v7l13 1 2 1-1 4h-15v12l-1 1h-5l-2-2v-15l1-14z" fill="#FDFDFD"/>
<path transform="translate(1043,1291)" d="m0 0h5l2 5 3 20v6l-7 2-12 1h-10l2-4 7-1-1-7v-9l4-1 3 2 2 13h3v-9l-1-7z" fill="#FDFDFD"/>
<path transform="translate(935,1314)" d="m0 0h7l5 4 2 5v9l-2 5-5 4-8 1-3-2v-2l10-3v-3h-8l-3-3-2-6 3-7z" fill="#FDFDFD"/>
<path transform="translate(901,1361)" d="m0 0h5l5 4 2 4v8l-3 5-4 2h-7l-5-5-1-2v-9l3-5z" fill="#206F41"/>
<path transform="translate(809,1360)" d="m0 0h6l6 4 2 5-1 9-5 5h-8l-5-5-1-3v-7l2-6z" fill="#217041"/>
<path transform="translate(963,1354)" d="m0 0h7l2 15 1 10 17 1-1 5-14 2h-9l-2-4-2-28z" fill="#FDFDFD"/>
<path transform="translate(1170,1332)" d="m0 0h6l6 5 2 6-1 7-6 5h-6l-5-4-2-4v-10z" fill="#1F7041"/>
<path transform="translate(849,792)" d="m0 0h10l1 7-4 11-5 3-11 1-2-1 2-9 3-8 3-3z" fill="#B1A064"/>
<path transform="translate(1319,1295)" d="m0 0h8l8 2 2-1 2 6-4-1-3 2-7 1 1 3 7 2-1 5-5 3-7-1-5-5-1-3v-7l3-5z" fill="#257343"/>
<path transform="translate(955,689)" d="m0 0h3v7l-13 28-5 8-4-1 1-9 7-17 8-13z" fill="#FDFDFD"/>
<path transform="translate(1261,1252)" d="m0 0h146l17 2v1h-11l-8-1h-138l-34 2-21 3-44 2h-15v-1l49-3 28-3z" fill="#83A85F"/>
<path transform="translate(538,925)" d="m0 0h5l-1 4-27 6-5 5-9 16-5 2-12 2v-4l7-3 11-2 1-4 6-10 5-7 12-3z" fill="#FDFDFD"/>
<path transform="translate(809,871)" d="m0 0 1 3-6 9-4 5-11 7-12 4h-14l-5-3-1-5 6 2h16l12-5 8-6h2l2-4z" fill="#FDFDFD"/>
<path transform="translate(993,1352)" d="m0 0h6l2 10 1 11v11l-5 1-2-1-2-11-1-9v-11z" fill="#FDFDFD"/>
<path transform="translate(1258,1307)" d="m0 0 5 1 4 9 4 15v6l-1 1h-5l-3-6-6-21v-4z" fill="#FDFDFD"/>
<path transform="translate(723,899)" d="m0 0h2l1 3h6l10-3 1 4-2 2-8 2h-6l-4-1-9 6-13 3-7-1-3-3v-4l9 2 8-1 12-6z" fill="#FDFDFD"/>
<path transform="translate(698,853)" d="m0 0h2l-1 6-5 8-15 27-12 21-4 6-9 3h-7l1-5 11-2 6-4 10-18 12-22 8-13z" fill="#FDFDFD"/>
<path transform="translate(971,786)" d="m0 0 4 1 4 11 5 5 1 9-2 2-5-1-8-16-1-9z" fill="#FDFDFD"/>
<path transform="translate(1056,1289)" d="m0 0h4l2 6 3 22-1 5-5-1-2-8-2-15v-8z" fill="#FDFDFD"/>
<path transform="translate(727,880)" d="m0 0h4l-1 5-4 6-6 4-3 1h-7l-2-3 7-8z" fill="#1B6D3F"/>
<path transform="translate(541,890)" d="m0 0h2l1 7-1 14-10 2h-5l3-7 9-15z" fill="#0E673C"/>
<path transform="translate(621,785)" d="m0 0 3 1-31 13-15 7-45 22-4 1 3-3 17-9 23-11 29-13z" fill="#95A561"/>
<path transform="translate(729,851)" d="m0 0h10l-1 4-10 2-8 6-5 5-12 3 1-5 6-2 8-3 7-8z" fill="#FDFDFD"/>
<path transform="translate(1118,660)" d="m0 0 2 1-5 4-23 11-3 1-2-1-1-5 29-10z" fill="#0F673C"/>
<path transform="translate(732,856)" d="m0 0h7l-1 5-2 3-7 3-10 1 2-5 8-6z" fill="#0E673C"/>
<path transform="translate(970,667)" d="m0 0h2l-2 5-9 19h-2v-2h-5l2-6 9-12z" fill="#0E673C"/>
<path transform="translate(846,1361)" d="m0 0h8l3 1 1 2v6l-3 2h-8l-3-3v-6z" fill="#387C48"/>
<path transform="translate(766,863)" d="m0 0 18 1 9 2 2 4-3 1-5-1-14-1-6-3z" fill="#FDFDFD"/>
<path transform="translate(1240,1317)" d="m0 0 5 1 2 3-1 5-7 3-4-1-2-8z" fill="#317745"/>
<path transform="translate(732,873)" d="m0 0h2l-1 5-9 4-12 6-5 3 2-5 8-7z" fill="#FDFDFD"/>
<path transform="translate(1041,693)" d="m0 0 2 1-16 12-11 10-5 5-7 8-6 9-1-2 6-10 5-7h2l2-4 14-12 6-4z" fill="#B89F65"/>
<path transform="translate(1205,1325)" d="m0 0h7l3 3-1 6-4 2h-6l-2-3v-6z" fill="#2C7A46"/>
<path transform="translate(876,868)" d="m0 0 1 3-3 5-5 2-5 1h-9l-3-2v-4h15l8-4z" fill="#FDFDFD"/>
<path transform="translate(1198,665)" d="m0 0h1v22l-3 9-4 1 1-9z" fill="#0E673C"/>
<path transform="translate(1062,632)" d="m0 0h2l1 3-5 5-4 1 1 5 2 2-7 3-1-3-7 1-10 5-2-1 19-10 10-6z" fill="#B89F65"/>
<path transform="translate(630,918)" d="m0 0 1 2-5 9-13 4-4-2 1-3 17-4 2-5z" fill="#FDFDFD"/>
<path transform="translate(797,836)" d="m0 0 5 2v3l-12 3-6 1 2-4 4-3z" fill="#FDFDFD"/>
<path transform="translate(422,1225)" d="m0 0h6v1l-45 9-8 1 1 4-4-3v-2l34-7z" fill="#97A461"/>
<path transform="translate(831,879)" d="m0 0 1 4-4 3-8 2-5-1 1-4 13-3z" fill="#FDFDFD"/>
<path transform="translate(583,933)" d="m0 0h2l-2 5-8 3-6 1-1-4 2-2 10-2z" fill="#FDFDFD"/>
<path transform="translate(851,805)" d="m0 0h5l-2 5-4 2h-10l1-4z" fill="#FDFDFD"/>
<path transform="translate(555,940)" d="m0 0h6l-1 4-13 3h-4l1-4z" fill="#FDFDFD"/>
<path transform="translate(894,809)" d="m0 0h1l-1 9-3 5-4 1h-7l1-4 9-3 2-2z" fill="#FDFDFD"/>
<path transform="translate(900,1347)" d="m0 0 2 1-2 4-8 2h-5v-5l1-1z" fill="#FDFDFD"/>
<path transform="translate(1101,1284)" d="m0 0 4 1-1 5-12 1-1-5 4-1 4 2v-2z" fill="#FDFDFD"/>
<path transform="translate(814,841)" d="m0 0h5l-1 4-8 2h-6l-2-3 2-2z" fill="#FDFDFD"/>
<path transform="translate(1184,1271)" d="m0 0 5 1v4h-6l-3 3-4-1-1-4 1-1h5z" fill="#FDFDFD"/>
<path transform="translate(564,1332)" d="m0 0h1l3 16-5 1-21-7-2-2 5 1 16 5h5l-3-10z" fill="#95A561"/>
<path transform="translate(754,1169)" d="m0 0h8v2l-14 3h-7l1-3z" fill="#2D7845"/>
<path transform="translate(937,1319)" d="m0 0 5 2v6h-6l-1-6z" fill="#3E7B49"/>
<path transform="translate(579,803)" d="m0 0 4 1-24 11v-3z" fill="#8BA760"/>
<path transform="translate(1123,1299)" d="m0 0 4 1 1 6-1 1h-5l-1-5z" fill="#3A7847"/>
<path transform="translate(1084,671)" d="m0 0h2l1 3-14 4-9 3 3-3z" fill="#B59F64"/>
<path transform="translate(1101,1300)" d="m0 0 3 1 1 6-5 1-2-4 1-3z" fill="#3E7D49"/>
<path transform="translate(859,824)" d="m0 0h5v4l-5 2-3-2 1-3z" fill="#FDFDFD"/>
<path transform="translate(968,1301)" d="m0 0h4l2 5-4 2-3-2z" fill="#FDFDFD"/>
<path transform="translate(594,1354)" d="m0 0h3l-1 5 2 1-7-1-2-1v-2z" fill="#9CA462"/>
<path transform="translate(976,1300)" d="m0 0 5 1v5l-6-1z" fill="#FDFDFD"/>
<path transform="translate(1336,1296)" d="m0 0 3 4-1 2h-4l-4-2v-3h5z" fill="#8AA760"/>
<path transform="translate(919,1303)" d="m0 0 5 1-1 4-4 1-2-4z" fill="#FDFDFD"/>
<path transform="translate(382,1233)" d="m0 0h5l-4 2-8 1 1 4-4-3v-2z" fill="#89A760"/>
</svg>
